# Blender v2.91.0 OBJ File: 'Room.blend'
# www.blender.org
v -11.171171 27.813288 -18.835712
v -11.267463 27.807415 -18.835712
v -11.267325 27.805168 -18.835712
v -11.171034 27.811041 -18.835712
v -11.267463 27.807415 -19.781439
v -11.267325 27.805168 -19.781439
v -10.696926 27.822855 -19.781439
v -10.622649 27.760475 -19.781439
v -10.624103 27.758759 -19.781439
v -10.697452 27.820667 -19.781439
v -10.622649 27.760475 -18.835712
v -10.624103 27.758759 -18.835712
v -11.171034 27.811041 -19.781439
v -11.171171 27.813288 -19.781439
v -10.696926 27.822855 -18.835712
v -10.790946 27.845510 -19.781439
v -10.790946 27.845510 -18.835712
v -10.886886 27.856869 -19.781439
v -10.886886 27.856869 -18.835712
v -10.984084 27.858875 -19.781439
v -10.984083 27.858875 -18.835712
v -11.077005 27.833315 -19.781439
v -11.077005 27.833315 -18.835712
v -10.697452 27.820667 -18.835712
v -10.791207 27.843275 -18.835712
v -10.791207 27.843275 -19.781439
v -10.886942 27.854620 -18.835712
v -10.886942 27.854620 -19.781439
v -10.983488 27.856705 -18.835712
v -10.983488 27.856705 -19.781439
v -11.076538 27.831114 -18.835712
v -11.076538 27.831114 -19.781439
v -9.957550 27.790361 -18.827110
v -9.971014 27.790361 -18.827110
v -9.971014 27.759249 -18.827110
v -9.944119 27.759249 -18.827110
v -9.971014 27.790361 -19.791943
v -9.971014 27.759249 -19.791943
v -10.067645 27.761124 -19.791943
v -10.067645 27.796217 -19.791943
v -9.957550 27.790361 -19.791943
v -9.944119 27.759249 -19.791943
v -10.172892 27.760891 -19.791943
v -10.172892 27.817881 -19.791943
v -10.067645 27.761124 -18.827110
v -10.067645 27.796217 -18.827110
v -10.244654 27.761417 -19.791943
v -10.244654 27.761417 -18.827110
v -10.315713 27.761402 -18.827110
v -10.315714 27.761402 -19.791943
v -10.172892 27.817881 -18.827110
v -10.172892 27.760891 -18.827110
v -10.371907 27.846508 -19.791943
v -10.371907 27.761312 -19.791943
v -10.450355 27.761810 -19.791943
v -10.450355 27.834702 -19.791943
v -10.244654 27.840370 -18.827110
v -10.244654 27.840370 -19.791943
v -10.315713 27.850115 -19.791943
v -10.315713 27.850115 -18.827110
v -10.539626 27.761526 -19.791943
v -10.539626 27.809675 -19.791943
v -10.371907 27.761312 -18.827110
v -10.371907 27.846508 -18.827110
v -10.450355 27.834702 -18.827110
v -10.450355 27.761810 -18.827110
v -10.539626 27.761526 -18.827110
v -10.575663 27.749130 -18.827110
v -10.575663 27.749130 -19.791943
v -10.539626 27.809675 -18.827110
v -10.711276 27.760330 -19.791943
v -10.711276 27.808319 -19.791943
v -10.678628 27.786381 -19.791943
v -10.678628 27.749130 -19.791943
v -10.575663 27.786381 -19.791943
v -10.575663 27.786381 -18.827110
v -10.882384 27.846508 -19.791943
v -10.882384 27.846508 -18.827110
v -10.803936 27.834702 -18.827110
v -10.803936 27.834702 -19.791943
v -10.882384 27.760830 -18.827110
v -10.882384 27.760830 -19.791943
v -10.803936 27.761251 -19.791943
v -10.803936 27.761251 -18.827110
v -11.186646 27.761515 -19.791943
v -11.186646 27.796217 -19.791943
v -11.081399 27.817881 -19.791943
v -11.081399 27.761703 -19.791943
v -11.186646 27.796217 -18.827110
v -11.081399 27.817881 -18.827110
v -11.283277 27.760538 -19.791943
v -11.283277 27.790361 -19.791943
v -11.186646 27.761515 -18.827110
v -11.081399 27.761703 -18.827110
v -10.711276 27.808319 -18.827110
v -10.711276 27.760330 -18.827110
v -10.678628 27.749130 -18.827110
v -10.678628 27.786381 -18.827110
v -11.009637 27.763109 -18.827110
v -11.009637 27.763109 -19.791943
v -10.938578 27.761143 -19.791943
v -10.938578 27.761143 -18.827110
v -11.296741 27.790361 -18.827110
v -11.283277 27.790361 -18.827110
v -11.296741 27.790361 -19.791943
v -11.283277 27.760538 -18.827110
v -11.310171 27.760538 -19.791943
v -11.310171 27.760538 -18.827110
v -11.009637 27.840370 -19.791943
v -10.938578 27.850115 -19.791943
v -11.009637 27.840370 -18.827110
v -10.938578 27.850115 -18.827110
v -10.625251 27.756073 -19.791943
v -10.625250 27.756073 -18.827110
v -10.625250 27.748098 -18.827110
v -10.625251 27.748098 -19.791943
v -10.539411 27.748627 -19.811911
v -9.922561 27.748627 -19.811911
v -9.922562 27.748627 -18.803398
v -10.539411 27.748627 -18.803400
v -10.539410 27.759325 -19.811911
v -10.539411 27.759325 -18.803398
v -9.922562 27.759323 -18.803398
v -9.922561 27.759325 -19.811909
v -10.539058 27.753975 -19.813669
v -9.920109 27.753975 -19.813669
v -9.920109 27.753975 -18.801640
v -10.711091 27.753975 -18.801640
v -10.710734 27.759325 -18.803398
v -11.327384 27.759325 -18.803400
v -11.329836 27.753975 -18.801640
v -11.329836 27.753975 -19.813671
v -11.327384 27.748627 -19.811911
v -11.327384 27.748627 -18.803400
v -11.327384 27.759325 -19.811911
v -10.710734 27.748627 -18.803400
v -10.710734 27.748627 -19.811911
v -10.711091 27.753975 -19.813669
v -10.695769 27.741793 -19.813669
v -10.695523 27.736444 -19.811911
v -10.555474 27.736444 -18.803400
v -10.555232 27.741793 -18.801640
v -10.695769 27.741793 -18.801640
v -10.695523 27.736444 -18.803400
v -10.555474 27.747143 -18.803398
v -10.695523 27.747143 -18.803398
v -10.710734 27.759325 -19.811911
v -10.695522 27.747143 -19.811911
v -10.539058 27.753975 -18.801640
v -10.555232 27.741793 -19.813669
v -10.555474 27.736444 -19.811911
v -10.555474 27.747143 -19.811911
vt 0.339096 0.539060
vt 0.350067 0.573451
vt 0.350034 0.539060
vt 0.344545 0.619409
vt 0.339130 0.573451
vt 0.333499 0.286773
vt 0.344406 0.252382
vt 0.333469 0.252383
vt 0.338910 0.332729
vt 0.344436 0.286772
vt 0.379359 0.689162
vt 0.412526 0.364014
vt 0.412526 0.689162
vt 0.611529 0.013502
vt 0.578363 0.338650
vt 0.578362 0.013502
vt 0.412526 0.013503
vt 0.379359 0.338650
vt 0.379358 0.013503
vt 0.445693 0.013502
vt 0.412526 0.338650
vt 0.478860 0.013502
vt 0.445694 0.338650
vt 0.512027 0.013502
vt 0.478861 0.338650
vt 0.545194 0.013502
vt 0.512029 0.338650
vt 0.545196 0.338650
vt 0.578363 0.689162
vt 0.611531 0.364014
vt 0.611530 0.689162
vt 0.545195 0.689162
vt 0.578363 0.364014
vt 0.512028 0.689162
vt 0.545196 0.364014
vt 0.478861 0.689162
vt 0.512028 0.364014
vt 0.445694 0.689162
vt 0.478861 0.364014
vt 0.445693 0.364014
vt 0.333317 0.080421
vt 0.344225 0.046034
vt 0.333289 0.046034
vt 0.344282 0.114811
vt 0.344252 0.080421
vt 0.333345 0.114811
vt 0.344313 0.149203
vt 0.333406 0.183598
vt 0.333375 0.149203
vt 0.333437 0.217991
vt 0.344344 0.183598
vt 0.344374 0.217991
vt 0.349877 0.367117
vt 0.349846 0.332729
vt 0.338941 0.367117
vt 0.349907 0.401504
vt 0.338972 0.401504
vt 0.349938 0.435890
vt 0.339003 0.435890
vt 0.349969 0.470278
vt 0.339064 0.504668
vt 0.339033 0.470278
vt 0.350001 0.504668
vt 0.859596 0.987086
vt 0.871876 0.981772
vt 0.871876 0.992387
vt 0.792399 0.979787
vt 0.781156 0.942628
vt 0.794652 0.942628
vt 0.792399 0.984964
vt 0.780436 0.979787
vt 0.950257 0.988965
vt 0.988418 0.471849
vt 0.950257 0.471849
vt 0.000000 0.000000
vt 0.000000 0.000000
vt 0.000000 0.000000
vt 0.328111 0.700660
vt 0.323915 0.989535
vt 0.323915 0.700660
vt 0.781067 0.902156
vt 0.802982 0.902156
vt 0.000000 0.000000
vt 0.000000 0.000000
vt 0.358277 0.989534
vt 0.328111 0.989535
vt 0.859596 0.981772
vt 0.871136 0.943632
vt 0.000000 0.000000
vt 0.000000 0.000000
vt 0.000000 0.000000
vt 0.857285 0.943632
vt 0.871228 0.902092
vt 0.000000 0.000000
vt 0.000000 0.000000
vt 0.358277 0.700660
vt 0.391760 0.989534
vt 0.781229 0.825625
vt 0.809450 0.795458
vt 0.813990 0.825625
vt 0.415194 0.700660
vt 0.437544 0.989534
vt 0.415194 0.989534
vt 0.811630 0.874560
vt 0.781264 0.847234
vt 0.815378 0.847234
vt 0.839858 0.873768
vt 0.871026 0.845721
vt 0.871020 0.873768
vt 0.781421 0.795458
vt 0.799827 0.761129
vt 0.871062 0.823542
vt 0.842096 0.792579
vt 0.870865 0.792579
vt 0.000000 0.000000
vt 0.000000 0.000000
vt 0.000000 0.000000
vt 0.455090 0.700659
vt 0.479810 0.989533
vt 0.455090 0.989533
vt 0.000000 0.000000
vt 0.000000 0.000000
vt 0.000000 0.000000
vt 0.851973 0.757345
vt 0.870978 0.757345
vt 0.000000 0.000000
vt 0.479810 0.700659
vt 0.508700 0.989533
vt 0.780851 0.695122
vt 0.790869 0.707676
vt 0.776545 0.707676
vt 0.508700 0.700659
vt 0.522072 0.989533
vt 0.781311 0.761129
vt 0.790869 0.747271
vt 0.861168 0.743121
vt 0.875870 0.743121
vt 0.626306 0.989533
vt 0.601586 0.700660
vt 0.626306 0.700660
vt 0.000000 0.000000
vt 0.000000 0.000000
vt 0.000000 0.000000
vt 0.794652 0.512319
vt 0.781380 0.552791
vt 0.781306 0.512319
vt 0.723119 0.989535
vt 0.689636 0.700661
vt 0.723119 0.700661
vt 0.792399 0.475160
vt 0.780931 0.475160
vt 0.000000 0.000000
vt 0.000000 0.000000
vt 0.000000 0.000000
vt 0.871253 0.622060
vt 0.842096 0.653023
vt 0.837436 0.622060
vt 0.871450 0.689595
vt 0.861168 0.702481
vt 0.852509 0.689595
vt 0.571565 0.700659
vt 0.559308 0.989533
vt 0.559308 0.700659
vt 0.000000 0.000000
vt 0.000000 0.000000
vt 0.000000 0.000000
vt 0.601586 0.989533
vt 0.781044 0.629322
vt 0.809450 0.659489
vt 0.781206 0.659489
vt 0.753285 0.989535
vt 0.757481 0.700661
vt 0.757481 0.989535
vt 0.871086 0.653023
vt 0.000000 0.000000
vt 0.000000 0.000000
vt 0.753285 0.700662
vt 0.000000 0.000000
vt 0.000000 0.000000
vt 0.857286 0.501970
vt 0.870908 0.543510
vt 0.848735 0.543510
vt 0.000000 0.000000
vt 0.000000 0.000000
vt 0.811630 0.580387
vt 0.781164 0.607713
vt 0.781920 0.580387
vt 0.799306 0.695122
vt 0.000000 0.000000
vt 0.000000 0.000000
vt 0.839859 0.571834
vt 0.871130 0.599881
vt 0.836013 0.599881
vt 0.937526 0.468204
vt 0.888876 0.985722
vt 0.888876 0.468206
vt 0.792399 0.469982
vt 0.780931 0.464817
vt 0.666202 0.989534
vt 0.643852 0.700660
vt 0.666202 0.700661
vt 0.859598 0.463830
vt 0.870983 0.501970
vt 0.859598 0.458516
vt 0.871369 0.463830
vt 0.437544 0.700659
vt 0.000000 0.000000
vt 0.837436 0.823542
vt 0.848734 0.902092
vt 0.781270 0.874560
vt 0.391760 0.700660
vt 0.000000 0.000000
vt 0.522072 0.700659
vt 0.540181 0.989533
vt 0.873130 0.723549
vt 0.876278 0.723549
vt 0.776545 0.747271
vt 0.779215 0.728202
vt 0.643852 0.989534
vt 0.000000 0.000000
vt 0.813991 0.629322
vt 0.802982 0.552791
vt 0.870353 0.571834
vt 0.689636 0.989534
vt 0.000000 0.000000
vt 0.875870 0.702481
vt 0.310169 0.496546
vt 0.060820 0.288444
vt 0.310169 0.288444
vt 0.059317 0.766536
vt 0.306576 0.989828
vt 0.059317 0.989828
vt 0.029965 0.429545
vt 0.034742 0.505264
vt 0.029965 0.505250
vt 0.029965 0.670132
vt 0.029966 0.916963
vt 0.034803 0.992612
vt 0.029966 0.992643
vt 0.029965 0.182739
vt 0.025248 0.017799
vt 0.029965 0.017857
vt 0.034703 0.182782
vt 0.034682 0.017915
vt 0.025128 0.992674
vt 0.025138 0.916987
vt 0.025168 0.670134
vt 0.025188 0.505236
vt 0.025198 0.429524
vt 0.025219 0.258383
vt 0.029965 0.335387
vt 0.025209 0.335357
vt 0.029966 0.822807
vt 0.025147 0.840012
vt 0.025149 0.822822
vt 0.034784 0.839979
vt 0.029966 0.839995
vt 0.029965 0.258419
vt 0.034721 0.335416
vt 0.306576 0.715098
vt 0.059317 0.729598
vt 0.059317 0.715098
vt 0.310169 0.235804
vt 0.060820 0.220146
vt 0.310169 0.220146
vt 0.029966 0.745837
vt 0.034782 0.822792
vt 0.025159 0.745845
vt 0.029965 0.352575
vt 0.025207 0.352547
vt 0.306576 0.729598
vt 0.059317 0.783916
vt 0.310169 0.272550
vt 0.060820 0.235804
vt 0.034763 0.670131
vt 0.034724 0.352603
vt 0.306576 0.783916
vt 0.060820 0.272550
vt 0.060820 0.008864
vt 0.310169 0.008865
vt 0.306576 0.506235
vt 0.059317 0.506235
vt 0.025228 0.182696
vt 0.355482 0.619409
vt 0.379358 0.364014
vt 0.611531 0.338650
vt 0.780436 0.990129
vt 0.988418 0.988966
vt 0.836012 0.845721
vt 0.000000 0.000000
vt 0.571565 0.989533
vt 0.815378 0.607713
vt 0.000000 0.000000
vt 0.937526 0.985721
vt 0.871369 0.453215
vt 0.540181 0.700659
vt 0.776148 0.728202
vt 0.060820 0.496546
vt 0.306576 0.766536
vt 0.034733 0.429566
vt 0.034793 0.916939
vt 0.034712 0.258455
vt 0.034772 0.745829
vn -0.0929 0.6833 0.7242
vn -0.5411 -0.6114 0.5773
vn 0.0974 -0.7165 0.6908
vn -0.6114 0.5411 -0.5773
vn -0.6115 0.5411 0.5773
vn 0.8137 0.0691 -0.5772
vn -0.2922 -0.5769 -0.7627
vn 0.3389 0.6714 -0.6590
vn 0.8137 0.0694 0.5770
vn 0.0681 -0.8136 -0.5774
vn 0.0974 -0.7165 -0.6908
vn -0.0930 0.6833 -0.7242
vn 0.1268 0.7087 -0.6940
vn 0.3389 0.6714 0.6590
vn 0.0496 0.7160 -0.6963
vn 0.1268 0.7087 0.6940
vn -0.0910 0.7312 -0.6761
vn 0.0497 0.7160 0.6963
vn -0.1658 0.6804 -0.7138
vn -0.0910 0.7312 0.6761
vn -0.1658 0.6804 0.7138
vn -0.2922 -0.5769 0.7627
vn 0.0683 -0.8135 0.5775
vn -0.1223 -0.6824 0.7207
vn -0.0485 -0.6942 0.7181
vn -0.1223 -0.6824 -0.7207
vn 0.0827 -0.6662 0.7411
vn -0.0485 -0.6942 -0.7181
vn 0.1688 -0.6934 0.7005
vn 0.0826 -0.6662 -0.7411
vn 0.1688 -0.6934 -0.7005
vn -0.5411 -0.6114 -0.5773
vn 0.4387 0.6673 0.6019
vn -0.0069 -0.7092 0.7049
vn 0.6929 -0.4556 0.5589
vn 0.0212 0.6998 -0.7140
vn -0.0060 -0.7046 -0.7095
vn 0.0907 0.6843 -0.7235
vn 0.4387 0.6673 -0.6019
vn -0.0069 -0.7092 -0.7049
vn 0.6929 -0.4555 -0.5589
vn -0.0018 -0.7082 -0.7060
vn 0.1743 0.6732 -0.7186
vn 0.0907 0.6843 0.7235
vn 0.0211 0.6998 0.7140
vn -0.0060 -0.7046 0.7095
vn -0.0025 -0.7062 0.7079
vn 0.0006 -0.7069 -0.7072
vn -0.0025 -0.7062 -0.7079
vn -0.0018 -0.7082 0.7060
vn 0.1743 0.6732 0.7186
vn -0.0017 -0.7080 -0.7062
vn -0.1511 0.7045 -0.6934
vn -0.0763 0.7124 -0.6976
vn 0.1582 0.7075 -0.6887
vn 0.0262 0.7278 0.6853
vn 0.1582 0.7075 0.6887
vn 0.0263 0.7278 -0.6853
vn 0.0006 -0.7069 0.7072
vn -0.0011 -0.7060 -0.7082
vn -0.3033 0.6727 -0.6749
vn -0.0017 -0.7080 0.7062
vn -0.1511 0.7045 0.6934
vn -0.0011 -0.7060 0.7082
vn -0.0763 0.7124 0.6976
vn 0.1109 -0.6569 0.7458
vn 0.1578 -0.4588 -0.8744
vn 0.1109 -0.6569 -0.7458
vn -0.3033 0.6727 0.6749
vn -0.1130 -0.6576 -0.7448
vn 0.3674 0.5940 -0.7157
vn -0.1574 -0.4590 -0.8744
vn -0.3748 0.5962 0.7100
vn -0.3748 0.5962 -0.7100
vn 0.1578 -0.4588 0.8744
vn 0.0763 0.7124 0.6976
vn 0.1527 0.7046 -0.6930
vn 0.0763 0.7124 -0.6976
vn -0.0001 -0.7083 -0.7059
vn -0.0016 -0.7053 0.7088
vn -0.0000 -0.7083 0.7059
vn -0.0907 0.6843 -0.7235
vn 0.0075 -0.7090 -0.7051
vn 0.0042 -0.7061 -0.7080
vn -0.0907 0.6843 0.7235
vn -0.1743 0.6732 -0.7186
vn -0.0212 0.6998 -0.7140
vn 0.0036 -0.7082 -0.7060
vn 0.0076 -0.7090 0.7051
vn 0.0042 -0.7061 0.7080
vn 0.1527 0.7046 0.6930
vn -0.1130 -0.6576 0.7448
vn 0.3674 0.5940 0.7157
vn 0.3112 0.6705 0.6735
vn 0.3112 0.6705 -0.6735
vn -0.0028 -0.7017 -0.7125
vn -0.0117 -0.7095 0.7046
vn -0.0028 -0.7017 0.7125
vn -0.0016 -0.7053 -0.7088
vn -0.0212 0.6998 0.7140
vn -0.4331 0.6700 -0.6029
vn -0.4331 0.6700 0.6029
vn 0.0036 -0.7082 0.7060
vn -0.6967 -0.4504 0.5583
vn -0.6967 -0.4504 -0.5583
vn -0.1743 0.6732 0.7186
vn -0.1582 0.7075 -0.6887
vn -0.0118 -0.7095 -0.7046
vn -0.1574 -0.4590 0.8744
vn -0.1582 0.7075 0.6887
vn -0.0263 0.7278 0.6853
vn -0.0263 0.7278 -0.6853
vn -0.0087 0.5410 0.8409
vn 0.0000 0.0000 1.0000
vn -0.0087 0.5410 -0.8409
vn 0.4339 -0.7606 -0.4828
vn 0.2694 -0.7260 0.6327
vn 0.2692 -0.7259 -0.6329
vn -0.2629 0.8039 -0.5334
vn 0.4339 0.7606 0.4828
vn 0.4339 0.7607 -0.4827
vn -0.0427 0.0561 -0.9975
vn 0.7261 0.0000 -0.6876
vn 0.7261 -0.0000 0.6875
vn 0.0466 0.0579 0.9972
vn -0.4341 0.7605 0.4828
vn -0.7261 -0.0003 0.6876
vn -0.7261 0.0000 -0.6876
vn -0.4339 -0.7608 0.4826
vn -0.4340 0.7606 -0.4827
vn -0.2810 -0.7208 0.6336
vn 0.4339 -0.7606 0.4828
vn -0.2809 -0.7207 -0.6338
vn -0.0567 -0.0706 -0.9959
vn -0.2709 -0.8046 -0.5284
vn 0.0516 -0.0680 0.9963
vn -0.2708 -0.8047 0.5283
vn 0.2604 -0.8067 0.5304
vn 0.2704 0.7158 0.6438
vn -0.0566 -0.0708 0.9959
vn 0.0467 0.0580 -0.9972
vn 0.2705 0.7158 -0.6438
vn 0.2734 0.8017 0.5314
vn 0.2734 0.8017 -0.5314
vn -0.0426 0.0559 0.9975
vn -0.2597 0.7213 0.6420
vn 0.0516 -0.0678 -0.9963
vn 0.2605 -0.8066 -0.5305
vn -0.2597 0.7213 -0.6420
vn -0.4341 -0.7606 -0.4827
vn 0.0000 0.0000 -1.0000
vn -0.2630 0.8039 0.5334
s 1
f 1/1/1 3/2/2 4/3/3
f 5/4/4 3/2/2 2/5/5
f 8/6/6 10/7/7 7/8/8
f 11/9/9 9/10/10 8/6/6
f 3/11/2 13/12/11 4/13/3
f 5/14/4 1/15/1 14/16/12
f 7/17/8 11/18/9 8/19/6
f 16/20/13 15/21/14 7/17/8
f 18/22/15 17/23/16 16/20/13
f 20/24/17 19/25/18 18/22/15
f 22/26/19 21/27/20 20/24/17
f 14/16/12 23/28/21 22/26/19
f 24/29/22 9/30/10 12/31/23
f 25/32/24 10/33/7 24/29/22
f 27/34/25 26/35/26 25/32/24
f 29/36/27 28/37/28 27/34/25
f 31/38/29 30/39/30 29/36/27
f 4/13/3 32/40/31 31/38/29
f 14/41/12 6/42/32 5/43/4
f 14/41/12 32/44/31 13/45/11
f 22/46/19 30/47/30 32/44/31
f 18/48/15 30/47/30 20/49/17
f 16/50/13 28/51/28 18/48/15
f 7/8/8 26/52/26 16/50/13
f 11/9/9 24/53/22 12/54/23
f 15/55/14 25/56/24 24/53/22
f 17/57/16 27/58/25 25/56/24
f 19/59/18 29/60/27 27/58/25
f 23/61/21 29/60/27 21/62/20
f 1/1/1 31/63/29 23/61/21
f 33/64/33 35/65/34 36/66/35
f 37/67/36 39/68/37 40/69/38
f 41/70/39 38/71/40 37/67/36
f 33/72/33 42/73/41 41/74/39
f 35/75/34 42/76/41 36/77/35
f 37/78/36 33/79/33 41/80/39
f 40/69/38 43/81/42 44/82/43
f 35/75/34 39/83/37 38/84/40
f 37/78/36 46/85/44 34/86/45
f 34/87/45 45/88/46 35/65/34
f 48/89/47 50/90/48 47/91/49
f 46/92/44 52/93/50 45/88/46
f 45/94/46 43/95/42 39/83/37
f 40/96/38 51/97/51 46/85/44
f 54/98/52 56/99/53 53/100/54
f 58/101/55 60/102/56 57/103/57
f 58/104/55 50/105/48 59/106/58
f 57/107/57 49/108/59 48/109/47
f 55/110/60 62/111/61 56/99/53
f 63/112/62 65/113/63 66/114/64
f 63/115/62 55/116/60 54/117/52
f 53/118/54 65/119/63 64/120/65
f 67/121/66 69/122/67 61/123/68
f 66/114/64 70/124/69 67/125/66
f 66/126/64 61/123/68 55/116/60
f 56/127/53 70/128/69 65/119/63
f 71/129/70 73/130/71 74/131/72
f 62/132/61 76/133/73 70/128/69
f 61/134/68 75/135/74 62/111/61
f 67/125/66 76/136/73 68/137/75
f 78/138/76 80/139/77 77/140/78
f 82/141/79 84/142/80 81/143/81
f 86/144/82 88/145/83 85/146/84
f 89/147/85 87/148/86 86/149/82
f 92/150/87 85/146/84 91/151/88
f 85/152/84 94/153/89 93/154/90
f 81/155/81 79/156/91 78/157/76
f 96/158/92 98/159/93 95/160/94
f 72/161/95 98/162/93 73/163/71
f 100/164/96 102/165/97 99/166/98
f 79/167/91 72/161/95 80/139/77
f 82/168/79 80/169/77 83/170/99
f 104/171/100 105/172/101 103/173/102
f 84/174/80 95/160/94 79/156/91
f 91/175/88 93/154/90 106/176/103
f 104/171/100 86/149/82 92/177/87
f 91/175/88 108/178/104 107/179/105
f 89/180/85 94/181/89 90/182/106
f 83/183/99 96/184/92 84/142/80
f 109/185/107 101/186/108 100/187/96
f 83/170/99 72/188/95 71/129/70
f 71/189/70 97/190/109 96/184/92
f 111/191/110 102/192/97 112/193/111
f 105/194/101 108/195/104 103/196/102
f 105/197/101 91/151/88 107/198/105
f 111/199/110 110/200/112 109/201/107
f 104/202/100 93/203/90 89/180/85
f 103/204/102 106/205/103 104/202/100
f 59/206/58 64/120/65 60/102/56
f 49/207/59 54/117/52 50/90/48
f 49/108/59 64/208/65 63/112/62
f 50/105/48 53/100/54 59/106/58
f 51/209/51 48/109/47 52/93/50
f 44/82/43 47/210/49 58/104/55
f 44/211/43 57/103/57 51/97/51
f 52/212/50 47/91/49 43/95/42
f 75/213/74 114/214/113 76/133/73
f 68/137/75 114/215/113 115/216/114
f 69/217/67 113/218/115 75/135/74
f 112/219/111 77/140/78 110/200/112
f 101/220/108 81/143/81 102/165/97
f 101/186/108 77/221/78 82/168/79
f 102/192/97 78/157/76 112/193/111
f 87/222/86 100/187/96 88/145/83
f 90/182/106 99/223/98 111/191/110
f 90/224/106 109/201/107 87/148/86
f 88/225/83 99/166/98 94/153/89
f 97/226/109 114/215/113 98/159/93
f 113/218/115 74/131/72 73/130/71
f 114/214/113 73/163/71 98/162/93
f 118/227/116 120/228/117 117/229/118
f 121/230/119 123/231/120 124/232/121
f 125/233/122 124/234/121 126/235/123
f 124/234/121 127/236/124 126/235/123
f 128/237/125 130/238/126 131/239/127
f 132/240/128 134/241/129 131/242/127
f 135/243/130 131/242/127 130/244/126
f 128/237/125 134/245/129 136/246/131
f 126/235/123 119/247/132 118/248/116
f 125/233/122 118/248/116 117/249/118
f 137/250/133 139/251/134 140/252/135
f 142/253/136 144/254/137 141/255/138
f 142/253/136 146/256/139 143/257/140
f 138/258/141 148/259/142 139/251/134
f 129/260/143 148/261/142 147/262/144
f 140/263/135 136/264/131 137/265/133
f 149/266/145 145/267/146 142/253/136
f 120/268/117 142/253/136 141/255/138
f 140/252/135 150/269/147 151/270/148
f 148/259/142 150/269/147 139/251/134
f 146/271/139 152/272/149 148/261/142
f 151/273/148 144/274/137 140/263/135
f 119/247/132 149/266/145 120/268/117
f 123/275/120 149/266/145 127/236/124
f 150/269/147 117/249/118 151/270/148
f 152/276/149 125/233/122 150/269/147
f 145/277/146 121/230/119 152/272/149
f 117/229/118 141/278/138 151/273/148
f 137/265/133 134/279/129 133/280/150
f 130/281/126 147/262/144 135/282/130
f 135/243/130 138/258/141 132/240/128
f 133/283/150 138/258/141 137/250/133
f 143/257/140 136/246/131 144/254/137
f 146/256/139 128/237/125 143/257/140
f 1/1/1 2/5/5 3/2/2
f 5/4/4 6/284/32 3/2/2
f 8/6/6 9/10/10 10/7/7
f 11/9/9 12/54/23 9/10/10
f 3/11/2 6/285/32 13/12/11
f 5/14/4 2/286/5 1/15/1
f 7/17/8 15/21/14 11/18/9
f 16/20/13 17/23/16 15/21/14
f 18/22/15 19/25/18 17/23/16
f 20/24/17 21/27/20 19/25/18
f 22/26/19 23/28/21 21/27/20
f 14/16/12 1/15/1 23/28/21
f 24/29/22 10/33/7 9/30/10
f 25/32/24 26/35/26 10/33/7
f 27/34/25 28/37/28 26/35/26
f 29/36/27 30/39/30 28/37/28
f 31/38/29 32/40/31 30/39/30
f 4/13/3 13/12/11 32/40/31
f 14/41/12 13/45/11 6/42/32
f 14/41/12 22/46/19 32/44/31
f 22/46/19 20/49/17 30/47/30
f 18/48/15 28/51/28 30/47/30
f 16/50/13 26/52/26 28/51/28
f 7/8/8 10/7/7 26/52/26
f 11/9/9 15/55/14 24/53/22
f 15/55/14 17/57/16 25/56/24
f 17/57/16 19/59/18 27/58/25
f 19/59/18 21/62/20 29/60/27
f 23/61/21 31/63/29 29/60/27
f 1/1/1 4/3/3 31/63/29
f 33/64/33 34/87/45 35/65/34
f 37/67/36 38/71/40 39/68/37
f 41/70/39 42/287/41 38/71/40
f 33/72/33 36/288/35 42/73/41
f 35/75/34 38/84/40 42/76/41
f 37/78/36 34/86/45 33/79/33
f 40/69/38 39/68/37 43/81/42
f 35/75/34 45/94/46 39/83/37
f 37/78/36 40/96/38 46/85/44
f 34/87/45 46/92/44 45/88/46
f 48/89/47 49/207/59 50/90/48
f 46/92/44 51/209/51 52/93/50
f 45/94/46 52/212/50 43/95/42
f 40/96/38 44/211/43 51/97/51
f 54/98/52 55/110/60 56/99/53
f 58/101/55 59/206/58 60/102/56
f 58/104/55 47/210/49 50/105/48
f 57/107/57 60/289/56 49/108/59
f 55/110/60 61/134/68 62/111/61
f 63/112/62 64/208/65 65/113/63
f 63/115/62 66/126/64 55/116/60
f 53/118/54 56/127/53 65/119/63
f 67/121/66 68/290/75 69/122/67
f 66/114/64 65/113/63 70/124/69
f 66/126/64 67/121/66 61/123/68
f 56/127/53 62/132/61 70/128/69
f 71/129/70 72/188/95 73/130/71
f 62/132/61 75/213/74 76/133/73
f 61/134/68 69/217/67 75/135/74
f 67/125/66 70/124/69 76/136/73
f 78/138/76 79/167/91 80/139/77
f 82/141/79 83/183/99 84/142/80
f 86/144/82 87/222/86 88/145/83
f 89/147/85 90/224/106 87/148/86
f 92/150/87 86/144/82 85/146/84
f 85/152/84 88/225/83 94/153/89
f 81/155/81 84/174/80 79/156/91
f 96/158/92 97/226/109 98/159/93
f 72/161/95 95/291/94 98/162/93
f 100/164/96 101/220/108 102/165/97
f 79/167/91 95/291/94 72/161/95
f 82/168/79 77/221/78 80/169/77
f 104/171/100 92/177/87 105/172/101
f 84/174/80 96/158/92 95/160/94
f 91/175/88 85/152/84 93/154/90
f 104/171/100 89/147/85 86/149/82
f 91/175/88 106/176/103 108/178/104
f 89/180/85 93/203/90 94/181/89
f 83/183/99 71/189/70 96/184/92
f 109/185/107 110/292/112 101/186/108
f 83/170/99 80/169/77 72/188/95
f 71/189/70 74/293/72 97/190/109
f 111/191/110 99/223/98 102/192/97
f 105/194/101 107/294/105 108/195/104
f 105/197/101 92/150/87 91/151/88
f 111/199/110 112/219/111 110/200/112
f 104/202/100 106/205/103 93/203/90
f 103/204/102 108/295/104 106/205/103
f 59/206/58 53/118/54 64/120/65
f 49/207/59 63/115/62 54/117/52
f 49/108/59 60/289/56 64/208/65
f 50/105/48 54/98/52 53/100/54
f 51/209/51 57/107/57 48/109/47
f 44/82/43 43/81/42 47/210/49
f 44/211/43 58/101/55 57/103/57
f 52/212/50 48/89/47 47/91/49
f 75/213/74 113/296/115 114/214/113
f 68/137/75 76/136/73 114/215/113
f 69/217/67 116/297/151 113/218/115
f 112/219/111 78/138/76 77/140/78
f 101/220/108 82/141/79 81/143/81
f 101/186/108 110/292/112 77/221/78
f 102/192/97 81/155/81 78/157/76
f 87/222/86 109/185/107 100/187/96
f 90/182/106 94/181/89 99/223/98
f 90/224/106 111/199/110 109/201/107
f 88/225/83 100/164/96 99/166/98
f 97/226/109 115/216/114 114/215/113
f 113/218/115 116/297/151 74/131/72
f 114/214/113 113/296/115 73/163/71
f 118/227/116 119/298/132 120/228/117
f 121/230/119 122/299/152 123/231/120
f 125/233/122 121/300/119 124/234/121
f 124/234/121 123/275/120 127/236/124
f 128/237/125 129/301/143 130/238/126
f 132/240/128 133/283/150 134/241/129
f 135/243/130 132/240/128 131/242/127
f 128/237/125 131/239/127 134/245/129
f 126/235/123 127/236/124 119/247/132
f 125/233/122 126/235/123 118/248/116
f 137/250/133 138/258/141 139/251/134
f 142/253/136 143/257/140 144/254/137
f 142/253/136 145/267/146 146/256/139
f 138/258/141 147/302/144 148/259/142
f 129/260/143 146/271/139 148/261/142
f 140/263/135 144/274/137 136/264/131
f 149/266/145 122/303/152 145/267/146
f 120/268/117 149/266/145 142/253/136
f 140/252/135 139/251/134 150/269/147
f 148/259/142 152/276/149 150/269/147
f 146/271/139 145/277/146 152/272/149
f 151/273/148 141/278/138 144/274/137
f 119/247/132 127/236/124 149/266/145
f 123/275/120 122/303/152 149/266/145
f 150/269/147 125/233/122 117/249/118
f 152/276/149 121/300/119 125/233/122
f 145/277/146 122/299/152 121/230/119
f 117/229/118 120/228/117 141/278/138
f 137/265/133 136/264/131 134/279/129
f 130/281/126 129/260/143 147/262/144
f 135/243/130 147/302/144 138/258/141
f 133/283/150 132/240/128 138/258/141
f 143/257/140 128/237/125 136/246/131
f 146/256/139 129/301/143 128/237/125
