# Blender v2.91.0 OBJ File: 'Room.blend'
# www.blender.org
o hamLo
v -11.733126 27.182917 -20.742584
v -11.733092 27.187128 -20.743315
v -11.733527 27.184875 -20.756325
v -11.733561 27.180664 -20.755596
v -11.730512 27.187267 -20.740860
v -11.730622 27.187696 -20.743496
v -11.731133 27.180458 -20.758215
v -11.731091 27.180029 -20.755568
v -11.730664 27.182281 -20.742558
v -11.730540 27.183573 -20.740219
v -11.731539 27.186417 -20.749905
v -11.731050 27.185446 -20.756508
v -11.730931 27.185358 -20.740917
v -11.731579 27.181345 -20.749025
v -11.731105 27.184151 -20.758856
v -11.731499 27.182377 -20.758133
v -11.726794 27.195831 -20.751692
v -11.721767 27.195974 -20.751884
v -11.722317 27.190197 -20.767084
v -11.727334 27.190153 -20.766630
v -11.730010 27.188547 -20.762131
v -11.730586 27.192879 -20.751055
v -11.729244 27.192511 -20.739229
v -11.726301 27.195505 -20.735712
v -11.721265 27.195642 -20.735626
v -11.726199 27.187387 -20.728998
v -11.721162 27.187384 -20.728794
v -11.730140 27.186544 -20.734034
v -11.729348 27.179165 -20.736916
v -11.726441 27.177485 -20.732590
v -11.721408 27.177309 -20.732449
v -11.726981 27.171806 -20.747528
v -11.721957 27.171530 -20.747648
v -11.730726 27.174860 -20.747931
v -11.730114 27.175200 -20.759817
v -11.727474 27.172134 -20.763508
v -11.722459 27.171864 -20.763906
v -11.727576 27.180250 -20.770222
v -11.722563 27.180122 -20.770739
v -11.731173 27.181192 -20.764952
v -11.151978 27.176239 -20.767508
v -11.154256 27.192039 -20.770166
v -11.155484 27.191444 -20.749357
v -11.153475 27.180954 -20.740376
v -11.155666 27.168083 -20.745308
v -11.154501 27.160501 -20.764698
v -11.157006 27.161146 -20.785391
v -11.155283 27.171587 -20.794489
v -11.156824 27.184505 -20.789442
v -11.629876 27.177622 -20.781004
v -11.514769 27.175097 -20.790392
v -11.514600 27.161652 -20.779268
v -11.629736 27.166458 -20.771769
v -11.667530 27.168713 -20.768503
v -11.667655 27.178656 -20.776728
v -11.667358 27.190784 -20.772329
v -11.629543 27.191236 -20.776066
v -11.514367 27.191498 -20.784443
v -11.629058 27.166008 -20.749796
v -11.513783 27.161108 -20.752800
v -11.512888 27.170515 -20.728054
v -11.628316 27.173819 -20.729254
v -11.666265 27.175268 -20.730631
v -11.666926 27.168312 -20.748930
v -11.627982 27.187433 -20.724316
v -11.512486 27.186916 -20.722105
v -11.512655 27.200363 -20.733229
v -11.628122 27.198595 -20.733549
v -11.666093 27.197340 -20.734457
v -11.665968 27.187397 -20.726233
v -11.628800 27.199045 -20.755524
v -11.513473 27.200905 -20.759699
v -11.666697 27.197741 -20.754030
v -11.353424 27.199923 -20.764875
v -11.214217 27.198086 -20.769209
v -11.215162 27.188147 -20.795355
v -11.354369 27.189981 -20.791021
v -11.352561 27.199348 -20.736908
v -11.213354 27.197514 -20.741241
v -11.352383 27.185141 -20.725155
v -11.213176 27.183306 -20.729488
v -11.352807 27.167812 -20.731441
v -11.213600 27.165976 -20.735775
v -11.353751 27.157871 -20.757586
v -11.214545 27.156036 -20.761919
v -11.354614 27.158445 -20.785555
v -11.215408 27.156610 -20.789888
v -11.354794 27.172653 -20.797306
v -11.215587 27.170816 -20.801640
v -11.162785 27.170120 -20.803284
v -11.162605 27.155914 -20.791531
v -11.162360 27.187450 -20.796999
v -11.161742 27.155340 -20.763563
v -11.160797 27.165279 -20.737417
v -11.160374 27.182610 -20.731133
v -11.160552 27.196817 -20.742886
v -11.161415 27.197390 -20.770853
v -11.676916 27.146957 -20.798756
v -11.712342 27.147425 -20.797653
v -11.679232 27.126999 -20.913992
v -11.677100 27.127043 -20.913639
v -11.710170 27.226696 -20.662762
v -11.671935 27.226192 -20.663952
v -11.676199 27.204100 -20.791586
v -11.714435 27.204605 -20.790396
v -11.711920 27.201696 -20.807060
v -11.676494 27.201229 -20.808163
v -11.676677 27.181314 -20.923048
v -11.678809 27.181269 -20.923401
v -11.676640 27.171572 -20.929996
v -11.676932 27.133877 -20.923462
v -11.668146 27.192829 -20.806984
v -11.668440 27.155136 -20.800449
v -11.668621 27.135487 -20.913803
v -11.668327 27.173180 -20.920338
v -11.710252 27.182148 -20.646505
v -11.672016 27.181644 -20.647696
v -11.671722 27.219337 -20.654230
v -11.709958 27.219843 -20.653040
v -11.718936 27.180824 -20.654530
v -11.718642 27.218519 -20.661064
v -11.722907 27.196426 -20.788696
v -11.723201 27.158733 -20.782162
v -11.714857 27.150333 -20.780987
v -11.676622 27.149828 -20.782177
v -11.672358 27.171921 -20.654545
v -11.710593 27.172426 -20.653355
v -11.663591 27.217793 -20.662777
v -11.663885 27.180099 -20.656242
v -11.668150 27.158007 -20.783876
v -11.667856 27.195700 -20.790411
v -11.721207 27.155897 -20.798426
v -11.720913 27.193592 -20.804960
v -11.687208 27.172798 -20.923388
v -11.687502 27.135105 -20.916855
vt 0.128537 0.755120
vt 0.106691 0.727065
vt 0.134829 0.746500
vt 0.136706 0.763160
vt 0.126774 0.761491
vt 0.098494 0.718994
vt 0.108460 0.720679
vt 0.140106 0.742739
vt 0.144996 0.751438
vt 0.111219 0.750168
vt 0.139442 0.756290
vt 0.124212 0.732152
vt 0.100405 0.735678
vt 0.090199 0.730724
vt 0.095756 0.725869
vt 0.073803 0.803519
vt 0.053753 0.737164
vt 0.088300 0.782877
vt 0.073393 0.739368
vt 0.098705 0.768038
vt 0.134424 0.782177
vt 0.143141 0.799957
vt 0.176495 0.782456
vt 0.148667 0.823271
vt 0.158159 0.769529
vt 0.181733 0.745194
vt 0.205527 0.742530
vt 0.194179 0.794910
vt 0.161661 0.678826
vt 0.147163 0.699468
vt 0.162092 0.742994
vt 0.136754 0.714304
vt 0.101063 0.700184
vt 0.092341 0.682406
vt 0.058988 0.699905
vt 0.086813 0.659098
vt 0.077320 0.712828
vt 0.029964 0.739825
vt 0.041307 0.687453
vt 0.117795 0.916079
vt 0.062464 0.905462
vt 0.070254 0.873833
vt 0.100747 0.862379
vt 0.142461 0.888321
vt 0.173126 0.926695
vt 0.165336 0.958324
vt 0.134843 0.969778
vt 0.093129 0.943837
vt 0.913713 0.212631
vt 0.690539 0.185190
vt 0.913702 0.184445
vt 0.988661 0.209930
vt 0.915560 0.240822
vt 0.691760 0.252724
vt 0.690580 0.218922
vt 0.691594 0.134116
vt 0.917090 0.098855
vt 0.915304 0.141710
vt 0.991878 0.105715
vt 0.990079 0.144879
vt 0.988612 0.184098
vt 0.919374 0.070531
vt 0.697358 0.014551
vt 0.923551 0.042220
vt 0.994151 0.080017
vt 0.692948 0.082840
vt 0.694582 0.048796
vt 0.694668 0.304248
vt 0.920079 0.283697
vt 0.990463 0.235701
vt 0.994886 0.274654
vt 0.999832 0.313516
vt 0.924996 0.326980
vt 0.105015 0.313314
vt 0.379836 0.257620
vt 0.380544 0.312757
vt 0.697930 0.356309
vt 0.381390 0.368064
vt 0.381003 0.038803
vt 0.105686 0.000595
vt 0.381804 0.002290
vt 0.380447 0.075156
vt 0.105351 0.073735
vt 0.105506 0.037163
vt 0.105151 0.129238
vt 0.379924 0.130204
vt 0.379579 0.185156
vt 0.104986 0.221263
vt 0.379581 0.221362
vt 0.198275 0.930398
vt 0.186873 0.977462
vt 0.000229 0.184558
vt 0.000192 0.221165
vt 0.000168 0.257768
vt 0.141475 0.994317
vt 0.157597 0.871287
vt 0.094115 0.837840
vt 0.000516 0.073379
vt 0.000349 0.128969
vt 0.037316 0.901760
vt 0.048717 0.854696
vt 0.000657 0.036770
vt 0.077993 0.960871
vt 0.000177 0.313339
vt 0.000206 0.368899
vt 0.095116 0.739449
vt 0.998346 0.054615
vt 0.104984 0.257801
vt 0.105097 0.368827
vt 0.105035 0.184729
vt 0.000804 0.000168
vt 0.550120 0.933306
vt 0.212539 0.842988
vt 0.212040 0.849430
vt 0.980595 0.539358
vt 0.614451 0.664657
vt 0.984079 0.654721
vt 0.549175 0.564993
vt 0.213316 0.654886
vt 0.566727 0.663839
vt 0.535985 0.379005
vt 0.236189 0.480309
vt 0.536467 0.478861
vt 0.124556 0.604137
vt 0.124493 0.451874
vt 0.203027 0.527924
vt 0.776909 0.748694
vt 0.761760 0.775116
vt 0.984899 0.807710
vt 0.599105 0.940591
vt 0.984121 0.842645
vt 0.615252 0.832716
vt 0.764563 0.428531
vt 0.743605 0.464295
vt 0.984899 0.503495
vt 0.573361 0.800148
vt 0.567504 0.833733
vt 0.594865 0.975943
vt 0.104422 0.635595
vt 0.147187 0.635595
vt 0.234235 0.505022
vt 0.234275 0.548188
vt 0.046023 0.528087
vt 0.014815 0.550990
vt 0.014774 0.507824
vt 0.101862 0.420416
vt 0.144627 0.420416
vt 0.593623 0.522245
vt 0.597970 0.557702
vt 0.572582 0.697347
vt 0.617145 0.697609
vt 0.269929 0.497501
vt 0.278279 0.528946
vt 0.246767 0.525793
vt 0.270422 0.562848
vt 0.246877 0.532632
vt 0.371058 0.497501
vt 0.394529 0.528099
vt 0.363045 0.532312
vt 0.371203 0.562935
vt 0.394512 0.534949
vt 0.214264 0.807758
vt 0.207208 0.885052
vt 0.543226 0.968194
vt 0.984899 0.689439
vt 0.617923 0.799896
vt 0.978919 0.503990
vt 0.978639 0.992129
vt 0.208001 0.613047
vt 0.542195 0.530241
vt 0.579895 0.378793
vt 0.215053 0.689941
vt 0.657979 0.748726
vt 0.672440 0.723513
vt 0.635611 0.429249
vt 0.629994 0.401072
vt 0.212819 0.648477
vt 0.235708 0.380454
vt 0.716494 0.714324
vt 0.761601 0.722298
vt 0.716481 0.783135
vt 0.980096 0.956957
vt 0.984899 0.352970
vt 0.683910 0.384216
vt 0.743936 0.392768
vt 0.684455 0.473002
vt 0.580377 0.478649
vt 0.672493 0.774072
vt 0.631404 0.456759
vn -0.9994 0.0137 0.0311
vn -0.2095 0.9639 0.1643
vn -0.2445 -0.9578 -0.1509
vn -0.2242 -0.8485 0.4794
vn -0.2329 0.9594 -0.1589
vn -0.6866 0.1290 0.7155
vn -0.2470 -0.9536 0.1724
vn -0.7337 -0.1098 -0.6705
vn -0.0404 0.9344 -0.3540
vn -0.6156 0.7226 -0.3145
vn -0.7337 0.6785 0.0364
vn -0.0276 0.9994 0.0215
vn -0.0308 0.6368 0.7704
vn -0.7482 0.4174 0.5158
vn -0.7531 -0.2079 0.6242
vn -0.0386 -0.3401 0.9396
vn -0.0426 -0.9335 0.3561
vn -0.6139 -0.7061 0.3529
vn -0.7519 -0.6592 0.0098
vn -0.0554 -0.9983 -0.0185
vn -0.0949 -0.6357 -0.7661
vn -0.7897 -0.3967 -0.4679
vn -0.7846 0.2280 -0.5765
vn -0.0872 0.3418 -0.9357
vn 0.9789 0.2033 0.0186
vn 0.9840 -0.1376 0.1130
vn 0.9701 -0.2292 -0.0792
vn 0.9784 0.1118 -0.1740
vn -0.0766 -0.6361 -0.7678
vn -0.1041 -0.6350 -0.7655
vn -0.0963 0.3414 -0.9349
vn -0.0690 0.3417 -0.9373
vn -0.0304 -0.9340 0.3560
vn -0.0486 -0.9331 0.3563
vn -0.0611 -0.9980 -0.0186
vn -0.0430 -0.9989 -0.0190
vn -0.0119 0.6372 0.7706
vn -0.0395 0.6367 0.7701
vn -0.0471 -0.3394 0.9395
vn -0.0195 -0.3405 0.9400
vn -0.0279 0.9348 -0.3540
vn -0.0461 0.9344 -0.3534
vn -0.0335 0.9992 0.0214
vn -0.0154 0.9997 0.0210
vn 0.0013 0.9347 -0.3554
vn -0.0057 0.9348 -0.3553
vn 0.0068 0.9998 0.0202
vn 0.0138 0.9997 0.0201
vn 0.0324 0.6373 0.7699
vn 0.0217 0.6374 0.7702
vn 0.0142 -0.3413 0.9398
vn 0.0247 -0.3415 0.9396
vn -0.0013 -0.9347 0.3555
vn -0.0083 -0.9346 0.3557
vn -0.0208 -0.9996 -0.0200
vn -0.0138 -0.9997 -0.0201
vn -0.0324 -0.6373 -0.7699
vn -0.0430 -0.6372 -0.7695
vn -0.0354 0.3414 -0.9392
vn -0.0247 0.3413 -0.9396
vn 0.7188 -0.4377 -0.5401
vn -0.0324 -0.6374 -0.7698
vn 0.7237 0.2194 -0.6543
vn 0.7121 -0.6645 0.2268
vn -0.0013 -0.9348 0.3552
vn -0.0138 -0.9997 -0.0200
vn 0.5681 -0.8176 -0.0942
vn 0.7621 0.4184 0.4940
vn 0.0247 -0.3413 0.9396
vn 0.7571 -0.2390 0.6080
vn 0.7138 0.6457 -0.2713
vn 0.0138 0.9997 0.0202
vn 0.5942 0.8023 0.0580
vn -0.9796 -0.1124 0.1664
vn -0.9847 0.1385 -0.1055
vn -0.9824 -0.1861 -0.0145
vn -0.2313 0.8543 -0.4654
vn -0.9743 0.2122 0.0754
vn -0.9994 0.0128 0.0311
vn -0.2326 0.9596 -0.1583
vn -0.2320 0.9598 -0.1582
vn -0.6862 0.1295 0.7158
vn -0.6871 0.1296 0.7150
vn -0.2479 -0.9532 0.1729
vn -0.2470 -0.9534 0.1735
vn -0.7342 -0.1107 -0.6698
vn -0.7334 -0.1103 -0.6708
vn -0.0399 0.9345 -0.3538
vn -0.7420 0.6351 -0.2145
vn -0.6019 0.7931 0.0930
vn -0.0276 0.9994 0.0212
vn -0.0309 0.6366 0.7705
vn -0.8391 0.4233 0.3416
vn -0.8445 -0.2711 0.4618
vn -0.0371 -0.3396 0.9398
vn -0.0429 -0.9334 0.3563
vn -0.7438 -0.6154 0.2609
vn -0.6274 -0.7767 -0.0549
vn -0.0554 -0.9983 -0.0189
vn -0.0960 -0.6347 -0.7667
vn -0.8694 -0.4011 -0.2885
vn -0.8640 0.2934 -0.4091
vn -0.0883 0.3415 -0.9357
vn 0.9863 0.1527 0.0626
vn 0.9758 -0.1999 0.0886
vn 0.9761 -0.1785 -0.1238
vn 0.9733 0.1744 -0.1493
vn -0.1040 -0.6345 -0.7659
vn -0.0965 0.3414 -0.9349
vn -0.0690 0.3416 -0.9373
vn -0.0304 -0.9339 0.3562
vn -0.0611 -0.9980 -0.0185
vn -0.0430 -0.9989 -0.0192
vn -0.0119 0.6374 0.7705
vn -0.0395 0.6365 0.7702
vn -0.0471 -0.3396 0.9394
vn -0.0279 0.9347 -0.3544
vn -0.0461 0.9342 -0.3537
vn -0.0154 0.9997 0.0209
vn 0.0013 0.9347 -0.3553
vn -0.0057 0.9347 -0.3553
vn 0.0068 0.9998 0.0203
vn 0.0218 0.6374 0.7703
vn 0.0141 -0.3413 0.9399
vn 0.0247 -0.3414 0.9396
vn -0.0013 -0.9347 0.3554
vn -0.0083 -0.9346 0.3556
vn -0.0208 -0.9996 -0.0199
vn -0.0324 -0.6374 -0.7699
vn -0.0430 -0.6373 -0.7694
vn -0.0354 0.3417 -0.9392
vn -0.0248 0.3414 -0.9396
vn 0.8169 -0.4497 -0.3612
vn -0.0323 -0.6372 -0.7700
vn 0.8224 0.2894 -0.4897
vn 0.5819 -0.7450 0.3262
vn -0.0013 -0.9347 0.3553
vn 0.7032 -0.7101 -0.0364
vn 0.8491 0.4279 0.3097
vn 0.0324 0.6372 0.7700
vn 0.0248 -0.3415 0.9396
vn 0.8436 -0.3113 0.4375
vn 0.5799 0.7296 -0.3624
vn 0.0012 0.9347 -0.3555
vn 0.0138 0.9997 0.0200
vn 0.7223 0.6915 -0.0081
vn -0.9772 -0.1597 0.1398
vn -0.9827 -0.1027 0.1539
vn -0.9773 -0.1594 0.1398
vn -0.9772 -0.1597 0.1397
vn -0.9796 0.1850 -0.0789
vn -0.9873 0.1295 -0.0922
vn -0.9795 0.1851 -0.0789
vn -0.9795 0.1855 -0.0792
vn -0.9895 -0.1372 -0.0460
vn -0.9824 -0.1861 -0.0148
vn -0.9869 -0.1514 -0.0552
vn -0.9824 -0.1864 -0.0145
vn -0.9805 0.1643 0.1076
vn -0.9743 0.2121 0.0755
vn -0.9774 0.1763 0.1164
vn -0.9744 0.2117 0.0758
vn 0.3739 -0.9145 0.1548
vn -0.2702 -0.9269 -0.2604
vn 0.3707 -0.9137 -0.1664
vn 0.3593 0.9164 0.1763
vn -0.3918 0.9028 -0.1776
vn -0.3234 0.9255 0.1974
vn 0.3881 0.9074 -0.1610
vn -0.2571 0.7892 -0.5578
vn -0.3749 0.8951 -0.2415
vn 0.9206 -0.3863 0.0582
vn 0.8936 0.2745 -0.3552
vn 0.9265 0.3693 -0.0728
vn 0.3676 -0.1919 0.9100
vn -0.3099 0.4904 0.8145
vn -0.3153 -0.1828 0.9312
vn -0.9994 0.0132 0.0311
vn -0.8665 -0.2668 0.4219
vn 0.3739 -0.9154 0.1490
vn -0.3369 -0.7999 0.4966
vn -0.4059 -0.9038 0.1357
vn 0.9994 -0.0132 -0.0311
vn 0.9994 -0.0133 -0.0311
vn 0.8889 0.3833 0.2508
vn -0.9104 -0.3976 -0.1146
vn -0.3890 -0.9183 0.0730
vn 0.9203 -0.3887 0.0439
vn 0.8837 -0.2899 0.3675
vn 0.3459 -0.8090 0.4753
vn 0.3727 0.4813 0.7934
vn -0.8612 0.4064 0.3053
vn 0.9262 0.3667 -0.0871
vn 0.3881 0.9064 -0.1669
vn -0.9046 0.3496 -0.2441
vn -0.9230 0.3704 -0.1042
vn 0.1437 0.1501 -0.9782
vn 0.3838 0.7988 -0.4632
vn -0.7658 0.2470 -0.5938
vn 0.8884 -0.3916 -0.2397
vn 0.1390 -0.4726 -0.8702
vn -0.7709 -0.4209 -0.4782
vn -0.9288 -0.3699 0.0241
vn -0.9994 0.0131 0.0311
vn 0.9994 -0.0131 -0.0311
vn -0.9994 0.0133 0.0311
vn -0.9994 0.0129 0.0312
s off
f 2/1/1 4/2/1 1/3/1
f 2/1/2 5/4/2 6/5/2
f 4/2/3 7/6/3 8/7/3
f 1/3/4 9/8/4 10/9/4
f 2/1/5 6/5/5 11/10/5
f 1/3/6 10/9/6 13/11/6
f 4/2/7 8/7/7 14/12/7
f 3/13/8 15/14/8 16/15/8
f 18/16/9 20/17/9 17/18/9
f 17/18/10 21/19/10 22/20/10
f 17/18/11 23/21/11 24/22/11
f 24/22/12 18/16/12 17/18/12
f 26/23/13 25/24/13 24/22/13
f 24/22/14 28/25/14 26/23/14
f 28/25/15 30/26/15 26/23/15
f 26/23/16 31/27/16 27/28/16
f 33/29/17 30/26/17 32/30/17
f 32/30/18 29/31/18 34/32/18
f 32/30/19 35/33/19 36/34/19
f 36/34/20 33/29/20 32/30/20
f 38/35/21 37/36/21 36/34/21
f 36/34/22 40/37/22 38/35/22
f 40/37/23 20/17/23 38/35/23
f 38/35/24 19/38/24 39/39/24
f 41/40/25 43/41/25 44/42/25
f 41/40/26 45/43/26 46/44/26
f 41/40/27 47/45/27 48/46/27
f 41/40/28 49/47/28 42/48/28
f 50/49/29 52/50/29 53/51/29
f 53/51/30 55/52/30 50/49/30
f 55/52/31 57/53/31 50/49/31
f 50/49/32 58/54/32 51/55/32
f 60/56/33 62/57/33 59/58/33
f 59/58/34 63/59/34 64/60/34
f 59/58/35 54/61/35 53/51/35
f 53/51/36 60/56/36 59/58/36
f 65/62/37 67/63/37 68/64/37
f 68/64/38 70/65/38 65/62/38
f 70/65/39 62/57/39 65/62/39
f 65/62/40 61/66/40 66/67/40
f 72/68/41 57/53/41 71/69/41
f 71/69/42 56/70/42 73/71/42
f 71/69/43 69/72/43 68/73/43
f 68/73/44 72/68/44 71/69/44
f 75/74/45 77/75/45 74/76/45
f 74/76/46 58/54/46 72/68/46
f 74/76/47 67/77/47 78/78/47
f 78/78/48 75/74/48 74/76/48
f 80/79/49 79/80/49 78/81/49
f 78/81/50 66/67/50 80/79/50
f 66/67/51 82/82/51 80/79/51
f 80/79/52 83/83/52 81/84/52
f 85/85/53 82/82/53 84/86/53
f 84/86/54 61/66/54 60/56/54
f 84/86/55 52/50/55 86/87/55
f 86/87/56 85/85/56 84/86/56
f 89/88/57 86/87/57 88/89/57
f 86/87/58 51/55/58 88/89/58
f 51/55/59 77/75/59 88/89/59
f 77/75/60 89/88/60 88/89/60
f 48/46/61 91/90/61 90/91/61
f 91/92/62 89/88/62 90/93/62
f 89/88/60 92/94/60 90/93/60
f 92/95/63 48/46/63 90/91/63
f 93/96/64 45/43/64 94/97/64
f 94/98/65 85/85/65 93/99/65
f 85/85/66 91/92/66 93/99/66
f 93/96/67 47/45/67 46/44/67
f 44/42/68 96/100/68 95/101/68
f 95/102/49 79/80/49 81/84/49
f 95/102/69 83/83/69 94/98/69
f 94/97/70 44/42/70 95/101/70
f 97/103/71 49/47/71 92/95/71
f 92/94/45 75/74/45 97/104/45
f 75/74/72 96/105/72 97/104/72
f 97/103/73 43/41/73 42/48/73
f 34/32/74 29/31/74 9/8/74
f 22/20/75 21/19/75 12/106/75
f 40/37/76 35/33/76 7/6/76
f 12/106/77 15/14/77 3/13/77
f 28/25/78 23/21/78 5/4/78
f 2/1/79 3/13/79 4/2/79
f 12/106/80 3/13/80 11/10/80
f 3/13/81 2/1/81 11/10/81
f 5/4/82 2/1/82 13/11/82
f 2/1/83 1/3/83 13/11/83
f 9/8/84 1/3/84 14/12/84
f 1/3/85 4/2/85 14/12/85
f 7/6/86 4/2/86 16/15/86
f 4/2/87 3/13/87 16/15/87
f 18/16/88 19/38/88 20/17/88
f 17/18/89 20/17/89 21/19/89
f 17/18/90 22/20/90 23/21/90
f 24/22/91 25/24/91 18/16/91
f 26/23/92 27/28/92 25/24/92
f 24/22/93 23/21/93 28/25/93
f 28/25/94 29/31/94 30/26/94
f 26/23/95 30/26/95 31/27/95
f 33/29/96 31/27/96 30/26/96
f 32/30/97 30/26/97 29/31/97
f 32/30/98 34/32/98 35/33/98
f 36/34/99 37/36/99 33/29/99
f 38/35/100 39/39/100 37/36/100
f 36/34/101 35/33/101 40/37/101
f 40/37/102 21/19/102 20/17/102
f 38/35/103 20/17/103 19/38/103
f 41/40/104 42/48/104 43/41/104
f 41/40/105 44/42/105 45/43/105
f 41/40/106 46/44/106 47/45/106
f 41/40/107 48/46/107 49/47/107
f 50/49/29 51/55/29 52/50/29
f 53/51/108 54/61/108 55/52/108
f 55/52/109 56/70/109 57/53/109
f 50/49/110 57/53/110 58/54/110
f 60/56/111 61/66/111 62/57/111
f 59/58/34 62/57/34 63/59/34
f 59/58/112 64/60/112 54/61/112
f 53/51/113 52/50/113 60/56/113
f 65/62/114 66/67/114 67/63/114
f 68/64/115 69/107/115 70/65/115
f 70/65/116 63/59/116 62/57/116
f 65/62/40 62/57/40 61/66/40
f 72/68/117 58/54/117 57/53/117
f 71/69/118 57/53/118 56/70/118
f 71/69/43 73/71/43 69/72/43
f 68/73/119 67/77/119 72/68/119
f 75/74/120 76/108/120 77/75/120
f 74/76/121 77/75/121 58/54/121
f 74/76/122 72/68/122 67/77/122
f 78/78/48 79/109/48 75/74/48
f 80/79/49 81/84/49 79/80/49
f 78/81/123 67/63/123 66/67/123
f 66/67/124 61/66/124 82/82/124
f 80/79/125 82/82/125 83/83/125
f 85/85/126 83/83/126 82/82/126
f 84/86/127 82/82/127 61/66/127
f 84/86/128 60/56/128 52/50/128
f 86/87/66 87/110/66 85/85/66
f 89/88/129 87/110/129 86/87/129
f 86/87/130 52/50/130 51/55/130
f 51/55/131 58/54/131 77/75/131
f 77/75/132 76/108/132 89/88/132
f 48/46/133 47/45/133 91/90/133
f 91/92/134 87/110/134 89/88/134
f 89/88/132 76/108/132 92/94/132
f 92/95/135 49/47/135 48/46/135
f 93/96/136 46/44/136 45/43/136
f 94/98/137 83/83/137 85/85/137
f 85/85/66 87/110/66 91/92/66
f 93/96/138 91/90/138 47/45/138
f 44/42/139 43/41/139 96/100/139
f 95/102/140 96/111/140 79/80/140
f 95/102/141 81/84/141 83/83/141
f 94/97/142 45/43/142 44/42/142
f 97/103/143 42/48/143 49/47/143
f 92/94/144 76/108/144 75/74/144
f 75/74/145 79/109/145 96/105/145
f 97/103/146 96/100/146 43/41/146
f 28/25/147 13/11/147 10/9/147
f 9/8/148 14/12/148 34/32/148
f 28/25/149 10/9/149 29/31/149
f 10/9/150 9/8/150 29/31/150
f 40/37/151 16/15/151 15/14/151
f 12/106/152 11/10/152 22/20/152
f 40/37/153 15/14/153 21/19/153
f 15/14/154 12/106/154 21/19/154
f 34/32/155 14/12/155 8/7/155
f 7/6/156 16/15/156 40/37/156
f 34/32/157 8/7/157 35/33/157
f 8/7/158 7/6/158 35/33/158
f 22/20/159 11/10/159 6/5/159
f 5/4/160 13/11/160 28/25/160
f 22/20/161 6/5/161 23/21/161
f 6/5/162 5/4/162 23/21/162
s 1
f 98/112/163 100/113/164 101/114/165
f 103/115/166 105/116/167 102/117/168
f 107/118/169 109/119/170 106/120/171
f 113/121/172 115/122/173 112/123/174
f 117/124/175 119/125/176 116/126/177
f 27/127/178 31/128/178 120/129/179
f 125/130/180 127/131/181 124/132/182
f 70/133/183 69/134/184 128/135/185
f 124/132/182 132/136/186 99/137/187
f 98/112/163 130/138/188 125/130/180
f 129/139/189 117/124/175 126/140/190
f 120/141/179 127/142/181 116/126/177
f 118/143/191 128/144/185 103/145/166
f 119/125/176 102/146/168 121/147/192
f 131/148/193 107/118/169 104/149/194
f 105/116/167 133/150/195 122/151/196
f 115/152/173 110/153/197 108/154/198
f 134/155/199 109/156/170 110/153/197
f 114/157/200 101/158/165 111/159/201
f 135/160/202 111/159/201 100/161/164
f 135/162/202 99/137/187 132/136/186
f 119/125/176 120/141/179 116/126/177
f 98/112/163 114/163/200 113/164/172
f 101/158/165 100/161/164 111/159/201
f 128/144/185 117/124/175 129/139/189
f 116/126/177 126/140/190 117/124/175
f 111/159/201 134/155/199 110/153/197
f 114/157/200 110/153/197 115/152/173
f 105/116/167 121/165/192 102/117/168
f 127/131/181 123/166/203 124/132/182
f 131/148/193 103/115/166 128/167/185
f 129/168/189 125/130/180 130/138/188
f 110/153/197 109/156/170 108/154/198
f 122/151/196 132/136/186 123/166/203
f 115/169/173 107/118/169 112/170/174
f 102/146/168 118/143/191 103/145/166
f 112/123/174 130/171/188 113/121/172
f 99/137/187 125/130/180 124/132/182
f 106/120/171 134/172/199 133/150/195
f 106/120/171 104/149/194 107/118/169
f 133/150/195 135/162/202 132/136/186
f 39/173/178 19/174/204 122/151/196
f 55/175/183 54/176/205 130/171/188
f 98/112/163 99/137/187 100/113/164
f 103/115/166 104/149/194 105/116/167
f 107/118/169 108/177/198 109/119/170
f 113/121/172 114/178/200 115/122/173
f 117/124/175 118/143/191 119/125/176
f 121/165/192 122/151/196 18/179/206
f 121/165/192 18/179/206 25/180/207
f 33/181/204 123/166/203 120/129/179
f 31/128/178 33/181/204 120/129/179
f 120/129/179 121/165/192 27/127/178
f 121/165/192 25/180/207 27/127/178
f 125/130/180 126/182/190 127/131/181
f 129/183/189 130/171/188 64/184/205
f 129/183/189 64/184/205 63/185/205
f 73/186/183 131/187/193 128/135/185
f 69/134/184 73/186/183 128/135/185
f 128/135/185 129/183/189 70/133/183
f 129/183/189 63/185/205 70/133/183
f 124/132/182 123/166/203 132/136/186
f 98/112/163 113/164/172 130/138/188
f 131/148/193 112/170/174 107/118/169
f 105/116/167 106/120/171 133/150/195
f 135/162/202 100/113/164 99/137/187
f 119/125/176 121/147/192 120/141/179
f 98/112/163 101/114/165 114/163/200
f 128/144/185 118/143/191 117/124/175
f 116/126/177 127/142/181 126/140/190
f 111/159/201 135/160/202 134/155/199
f 114/157/200 111/159/201 110/153/197
f 105/116/167 122/151/196 121/165/192
f 127/131/181 120/129/179 123/166/203
f 131/148/193 104/149/194 103/115/166
f 129/168/189 126/182/190 125/130/180
f 122/151/196 133/150/195 132/136/186
f 115/169/173 108/177/198 107/118/169
f 102/146/168 119/125/176 118/143/191
f 112/123/174 131/187/193 130/171/188
f 99/137/187 98/112/163 125/130/180
f 106/120/171 109/119/170 134/172/199
f 106/120/171 105/116/167 104/149/194
f 133/150/195 134/172/199 135/162/202
f 123/166/203 33/181/204 37/188/178
f 123/166/203 37/188/178 39/173/178
f 19/174/204 18/179/206 122/151/196
f 123/166/203 39/173/178 122/151/196
f 131/187/193 73/186/183 56/189/183
f 131/187/193 56/189/183 55/175/183
f 54/176/205 64/184/205 130/171/188
f 130/171/188 131/187/193 55/175/183
